<svg width="24" height="24" viewBox="0 0 24 24" fill="none" xmlns="http://www.w3.org/2000/svg">
<g clip-path="url(#clip0_70_108)">
<path fill-rule="evenodd" clip-rule="evenodd" d="M18.3086 6.93382C18.6015 6.64093 18.6015 6.16606 18.3086 5.87316C18.0158 5.58027 17.5409 5.58027 17.248 5.87316L12.2125 10.9087L7.11627 5.8125C6.82337 5.5196 6.3485 5.5196 6.05561 5.8125C5.76271 6.10539 5.76271 6.58026 6.05561 6.87316L11.1518 11.9694L5.93428 17.1869C5.64139 17.4798 5.64139 17.9546 5.93428 18.2475C6.22717 18.5404 6.70205 18.5404 6.99494 18.2475L12.2125 13.03L17.3693 18.1869C17.6622 18.4798 18.1371 18.4798 18.43 18.1869C18.7229 17.894 18.7229 17.4191 18.43 17.1262L13.2731 11.9694L18.3086 6.93382Z" fill="#202020"/>
</g>
<defs>
<clipPath id="clip0_70_108">
<rect width="24" height="24" fill="white"/>
</clipPath>
</defs>
</svg>
