<svg width="18" height="18" viewBox="0 0 18 18" fill="none" xmlns="http://www.w3.org/2000/svg">
<path d="M13.7692 7H8.23077C7.55103 7 7 7.61991 7 8.38462V14.6154C7 15.3801 7.55103 16 8.23077 16H13.7692C14.449 16 15 15.3801 15 14.6154V8.38462C15 7.61991 14.449 7 13.7692 7Z" stroke="#242320" stroke-linecap="round" stroke-linejoin="round"/>
<path d="M4.84615 11H4.23077C3.90435 11 3.5913 10.8541 3.36048 10.5945C3.12967 10.3348 3 9.98261 3 9.61538V3.38462C3 3.01739 3.12967 2.66521 3.36048 2.40554C3.5913 2.14588 3.90435 2 4.23077 2H9.76923C10.0957 2 10.4087 2.14588 10.6395 2.40554C10.8703 2.66521 11 3.01739 11 3.38462V4.07692" stroke="#242320" stroke-linecap="round" stroke-linejoin="round"/>
</svg>
