<svg width="24" height="24" viewBox="0 0 24 24" fill="none" xmlns="http://www.w3.org/2000/svg">
<rect width="24" height="24" fill="#E5E5E5"/>
<rect width="849" height="786" transform="translate(-488 -311)" fill="white"/>
<path fill-rule="evenodd" clip-rule="evenodd" d="M3.17932 16.6712C2.83434 17.4301 2.99634 18.3235 3.58584 18.913L4.67905 20.0062C5.26856 20.5957 6.16191 20.7577 6.92087 20.4127L7.93932 19.9498C8.11945 20.515 8.43371 21.0467 8.8821 21.4951C10.381 22.9941 12.8113 22.9941 14.3102 21.4951C15.5854 20.22 15.7757 18.2708 14.8813 16.7944L19.825 14.5472C21.0962 13.9694 21.399 12.2997 20.4116 11.3123L12.2798 3.18046C11.2924 2.19305 9.62267 2.49582 9.04483 3.76707L3.17932 16.6712ZM9.32095 19.3218L13.4996 17.4224C14.1533 18.3358 14.0699 19.6141 13.2495 20.4345C12.3364 21.3476 10.8559 21.3476 9.94276 20.4345C9.62471 20.1164 9.41744 19.7295 9.32095 19.3218Z" fill="#794F34"/>
<path d="M17.7026 5.88916L20.4167 3.17511" stroke="#794F34" stroke-width="1.5" stroke-linecap="round"/>
<path d="M15.667 3.85376L16.1637 2.00003" stroke="#794F34" stroke-width="1.5" stroke-linecap="round"/>
<path d="M21.5918 7.42822L19.7381 7.92493" stroke="#794F34" stroke-width="1.5" stroke-linecap="round"/>
</svg>
