<svg width="24" height="24" viewBox="0 0 24 24" fill="none" xmlns="http://www.w3.org/2000/svg">
<path fill-rule="evenodd" clip-rule="evenodd" d="M11.4696 20.5303C11.7625 20.8232 12.2373 20.8232 12.5302 20.5303C12.8231 20.2374 12.8231 19.7626 12.5302 19.4697L5.81055 12.75L19.9999 12.75C20.4141 12.75 20.7499 12.4142 20.7499 12C20.7499 11.5858 20.4141 11.25 19.9999 11.25L5.81055 11.25L12.5302 4.53033C12.8231 4.23744 12.8231 3.76256 12.5302 3.46967C12.2373 3.17678 11.7625 3.17678 11.4696 3.46967L3.47006 11.4692C3.46972 11.4695 3.46937 11.4699 3.46903 11.4702C3.33362 11.6059 3.24989 11.7932 3.24989 12C3.24989 12.1585 3.29909 12.3056 3.38304 12.4267C3.40875 12.4638 3.43773 12.4985 3.46954 12.5303C3.43781 12.4945 3.40903 12.46 3.38304 12.4267" fill="#383B3B"/>
</svg>
